<svg width="172" height="172" xmlns="http://www.w3.org/2000/svg" xmlns:xlink="http://www.w3.org/1999/xlink" xml:space="preserve" overflow="hidden"><g transform="translate(-311 -496)"><path d="M473.471 563.923C472.012 561.873 469.792 560.491 467.308 560.087 463.004 559.342 458.692 558.669 454.373 558.069L454.373 527.207C454.384 521.914 451.022 517.203 446.014 515.493L445.923 515.465 445.825 515.465 402.974 502.502C401.049 501.855 399.031 501.525 397 501.527 394.971 501.525 392.955 501.855 391.032 502.502L348.175 515.453 348.077 515.453 347.986 515.482C342.983 517.19 339.623 521.892 339.627 527.178L339.627 558.04C335.307 558.644 330.996 559.317 326.692 560.059 324.208 560.463 321.989 561.844 320.529 563.894 319.323 565.598 318.857 567.718 319.239 569.771L325.545 602.674C326.46 607.109 330.727 610.018 335.189 609.251 336.68 608.993 338.17 608.752 339.667 608.511 339.753 616.721 342.889 624.696 349.012 632.224 353.685 637.957 360.117 643.473 368.127 648.575 376.643 653.942 385.712 658.377 395.177 661.802L397.057 662.444 398.932 661.785C408.382 658.284 417.438 653.797 425.948 648.398 433.974 643.238 440.378 637.757 445.04 632.041 451.163 624.536 454.305 616.618 454.391 608.534 455.887 608.775 457.378 609.015 458.868 609.273 459.338 609.353 459.814 609.393 460.29 609.394 464.276 609.398 467.713 606.596 468.512 602.692L474.79 569.799C475.163 567.743 474.687 565.623 473.471 563.923Z" fill="#002050"/><path d="M345.4 607.427 345.4 608.196C345.4 638.771 397 656.39 397 656.39 397 656.39 448.6 638.319 448.6 608.196L448.6 607.68C414.387 602.687 379.637 602.602 345.4 607.427Z" fill="#0064B5"/><path d="M448.6 557.307 448.6 527.419C448.603 524.594 446.811 522.08 444.139 521.164L401.225 508.189C398.49 507.256 395.522 507.256 392.786 508.189L349.838 521.164C347.175 522.088 345.393 524.6 345.4 527.419L345.4 557.307C379.665 552.993 414.335 552.993 448.6 557.307Z" fill="#FFFFFF"/><path d="M370.627 546.757C369.978 547.073 369.261 547.225 368.54 547.199 367.571 547.241 366.632 546.865 365.96 546.167 365.298 545.42 364.953 544.446 364.997 543.449 364.95 542.367 365.343 541.313 366.086 540.525 366.802 539.77 367.804 539.354 368.844 539.378 369.453 539.359 370.06 539.464 370.627 539.688L370.627 540.628C370.079 540.329 369.462 540.175 368.838 540.181 368.042 540.149 367.272 540.465 366.728 541.047 366.174 541.679 365.884 542.5 365.92 543.34 365.877 544.143 366.149 544.93 366.676 545.536 367.185 546.084 367.907 546.383 368.654 546.356 369.343 546.383 370.026 546.218 370.627 545.88ZM378.327 547.073 374.313 547.073 374.313 539.533 378.143 539.533 378.143 540.336 375.213 540.336 375.213 542.841 377.937 542.841 377.937 543.638 375.213 543.638 375.213 546.276 378.327 546.276ZM387.339 547.073 386.29 547.073 385.029 544.963C384.929 544.786 384.816 544.617 384.691 544.458 384.595 544.332 384.483 544.218 384.358 544.12 384.244 544.036 384.119 543.97 383.985 543.925 383.842 543.884 383.693 543.864 383.544 543.868L382.816 543.868 382.816 547.073 381.933 547.073 381.933 539.533 384.186 539.533C384.494 539.53 384.802 539.572 385.098 539.659 385.363 539.733 385.611 539.86 385.826 540.032 386.031 540.204 386.195 540.419 386.307 540.663 386.518 541.174 386.536 541.744 386.359 542.268 386.284 542.478 386.171 542.672 386.026 542.841 385.876 543.015 385.698 543.162 385.499 543.277 385.283 543.406 385.049 543.502 384.805 543.564 384.922 543.615 385.032 543.68 385.132 543.759 385.231 543.832 385.322 543.917 385.401 544.011 385.491 544.116 385.573 544.227 385.648 544.343 385.734 544.47 385.826 544.613 385.929 544.779ZM382.816 540.336 382.816 543.065 384.014 543.065C384.223 543.07 384.431 543.037 384.627 542.967 384.807 542.906 384.973 542.808 385.115 542.681 385.255 542.554 385.365 542.397 385.436 542.222 385.517 542.03 385.556 541.823 385.551 541.614 385.575 541.257 385.43 540.91 385.161 540.674 384.833 540.424 384.425 540.303 384.014 540.336ZM394.512 540.336 392.333 540.336 392.333 547.073 391.45 547.073 391.45 540.336 389.277 540.336 389.277 539.533 394.512 539.533ZM398.72 547.073 397.831 547.073 397.831 539.533 398.72 539.533ZM406.707 540.336 403.76 540.336 403.76 542.945 406.483 542.945 406.483 543.736 403.76 543.736 403.76 547.073 402.877 547.073 402.877 539.533 406.707 539.533ZM411.173 547.073 410.29 547.073 410.29 539.533 411.173 539.533ZM419.314 547.073 415.301 547.073 415.301 539.533 419.131 539.533 419.131 540.336 416.189 540.336 416.189 542.841 418.913 542.841 418.913 543.638 416.189 543.638 416.189 546.276 419.303 546.276ZM422.92 547.073 422.92 539.533 425.002 539.533C427.677 539.533 429.015 540.758 429.015 543.208 429.06 544.259 428.658 545.28 427.908 546.018 427.099 546.748 426.033 547.128 424.944 547.073ZM423.803 540.336 423.803 546.276 424.95 546.276C425.79 546.325 426.615 546.038 427.243 545.479 427.826 544.881 428.127 544.064 428.075 543.231 428.075 541.299 427.043 540.365 424.99 540.365ZM376.406 533.072 374.147 533.072 374.147 527.006C374.147 526.352 374.147 525.624 374.233 524.833L374.176 524.833C374.099 525.288 373.994 525.738 373.86 526.18L371.487 533.06 369.618 533.06 367.187 526.249C367.053 525.783 366.946 525.311 366.866 524.833L366.803 524.833C366.866 525.836 366.894 526.713 366.894 527.465L366.894 533.072 364.853 533.072 364.853 522.947 368.196 522.947 370.271 528.955C370.428 529.427 370.547 529.91 370.627 530.4L370.667 530.4C370.793 529.827 370.931 529.357 371.068 528.938L373.144 522.947 376.406 522.947ZM379.622 524.667C379.281 524.679 378.947 524.558 378.693 524.328 378.459 524.119 378.327 523.817 378.332 523.503 378.323 523.189 378.456 522.888 378.693 522.683 379.241 522.262 380.004 522.262 380.551 522.683 380.784 522.891 380.915 523.19 380.907 523.503 380.916 523.82 380.786 524.126 380.551 524.34 380.295 524.564 379.962 524.681 379.622 524.667ZM380.723 533.049 378.487 533.049 378.487 525.813 380.723 525.813ZM388.09 532.808C387.412 533.137 386.659 533.287 385.906 533.244 384.906 533.289 383.931 532.924 383.206 532.235 382.511 531.548 382.137 530.602 382.174 529.626 382.116 528.544 382.518 527.489 383.28 526.719 384.082 525.983 385.146 525.599 386.233 525.653 386.871 525.608 387.51 525.727 388.09 525.997L388.09 527.889C387.641 527.547 387.091 527.363 386.525 527.367 385.959 527.34 385.408 527.547 385 527.94 384.27 528.814 384.253 530.081 384.96 530.973 385.357 531.351 385.892 531.548 386.439 531.518 387.023 531.51 387.593 531.329 388.073 530.996ZM394.271 527.849C393.982 527.695 393.658 527.617 393.331 527.625 392.883 527.601 392.454 527.801 392.184 528.158 391.888 528.584 391.743 529.097 391.771 529.615L391.771 533.055 389.547 533.055 389.547 525.813 391.777 525.813 391.777 527.161C391.993 526.285 392.784 525.674 393.686 525.687 393.881 525.676 394.077 525.705 394.259 525.773ZM398.72 533.267C397.667 533.334 396.632 532.97 395.853 532.258 395.137 531.524 394.761 530.524 394.816 529.5 394.759 528.453 395.151 527.431 395.893 526.691 396.689 525.984 397.732 525.619 398.795 525.676 399.836 525.616 400.856 525.982 401.621 526.691 402.322 527.403 402.694 528.375 402.647 529.374 402.709 530.434 402.327 531.473 401.592 532.24 400.812 532.956 399.777 533.326 398.72 533.267ZM398.777 527.39C398.303 527.364 397.845 527.566 397.545 527.935 397.23 528.383 397.076 528.924 397.109 529.471 397.109 530.862 397.669 531.558 398.789 531.558 399.909 531.558 400.444 530.845 400.394 529.42 400.383 528.051 399.838 527.367 398.76 527.367ZM403.628 532.877 403.628 531.071C403.973 531.279 404.343 531.444 404.729 531.564 405.065 531.667 405.414 531.721 405.766 531.724 406.086 531.739 406.404 531.684 406.701 531.564 406.907 531.487 407.044 531.291 407.045 531.071 407.048 530.935 406.991 530.806 406.89 530.715 406.77 530.612 406.635 530.529 406.489 530.469 406.315 530.395 406.137 530.332 405.955 530.28 405.761 530.226 405.57 530.161 405.382 530.085 405.118 529.99 404.864 529.873 404.62 529.735 404.406 529.624 404.213 529.479 404.046 529.305 403.897 529.138 403.783 528.943 403.708 528.732 403.623 528.483 403.582 528.221 403.588 527.958 403.579 527.592 403.672 527.23 403.857 526.914 404.031 526.622 404.273 526.376 404.562 526.197 404.882 526.008 405.234 525.878 405.6 525.813 405.989 525.725 406.388 525.681 406.787 525.681 407.113 525.684 407.439 525.709 407.761 525.756 408.091 525.809 408.416 525.882 408.736 525.974L408.736 527.694C408.452 527.525 408.145 527.4 407.825 527.321 407.516 527.242 407.198 527.202 406.879 527.201 406.74 527.2 406.602 527.211 406.466 527.235 406.346 527.258 406.231 527.296 406.122 527.35 406.03 527.394 405.949 527.459 405.887 527.539 405.829 527.617 405.8 527.712 405.801 527.809 405.801 527.933 405.845 528.053 405.927 528.147 406.024 528.245 406.136 528.326 406.259 528.388 406.407 528.461 406.56 528.522 406.718 528.571L407.217 528.737C407.491 528.832 407.76 528.945 408.019 529.076 408.246 529.19 408.454 529.337 408.639 529.511 408.81 529.672 408.945 529.867 409.034 530.085 409.132 530.337 409.179 530.606 409.172 530.876 409.183 531.259 409.088 531.638 408.897 531.971 408.712 532.276 408.456 532.532 408.151 532.716 407.821 532.913 407.46 533.054 407.085 533.135 406.672 533.221 406.251 533.263 405.829 533.261 405.079 533.262 404.333 533.132 403.628 532.877ZM413.919 533.267C412.866 533.334 411.831 532.97 411.052 532.258 410.34 531.522 409.966 530.523 410.02 529.5 409.961 528.453 410.352 527.432 411.093 526.691 411.891 525.984 412.935 525.62 413.999 525.676 415.04 525.618 416.06 525.984 416.826 526.691 417.522 527.405 417.892 528.377 417.846 529.374 417.908 530.434 417.526 531.473 416.791 532.24 416.011 532.956 414.976 533.326 413.919 533.267ZM413.976 527.39C413.503 527.364 413.047 527.567 412.749 527.935 412.43 528.381 412.275 528.924 412.308 529.471 412.308 530.862 412.87 531.558 413.994 531.558 415.117 531.558 415.651 530.845 415.593 529.42 415.593 528.051 415.054 527.367 413.976 527.367ZM423.821 524.093C423.559 523.985 423.278 523.929 422.995 523.927 422.278 523.927 421.923 524.311 421.923 525.074L421.923 525.813 423.574 525.813 423.574 527.465 421.923 527.465 421.923 533.055 419.693 533.055 419.693 527.482 418.477 527.482 418.477 525.813 419.693 525.813 419.693 524.936C419.664 524.187 419.961 523.462 420.507 522.947 421.11 522.418 421.896 522.147 422.697 522.19 423.084 522.177 423.471 522.226 423.843 522.333ZM429.302 532.986C428.831 533.185 428.321 533.273 427.811 533.244 426.236 533.244 425.449 532.428 425.449 530.796L425.449 527.482 424.273 527.482 424.273 525.813 425.449 525.813 425.449 524.271 427.673 523.635 427.673 525.813 429.302 525.813 429.302 527.465 427.673 527.465 427.673 530.4C427.673 531.151 427.971 531.547 428.573 531.547 428.83 531.541 429.08 531.47 429.302 531.34Z" fill="#17154C"/><path d="M397 613.505 399.947 622.563 409.476 622.563 401.764 628.165 404.711 637.223 397 631.622 389.289 637.223 392.236 628.165 384.524 622.563 394.053 622.563Z" fill="#FFFFFF"/><path d="M473.471 563.923C472.012 561.873 469.792 560.491 467.308 560.087 461.085 559.025 454.849 558.098 448.6 557.307 414.32 552.989 379.634 552.989 345.354 557.307 339.132 558.098 332.911 559.025 326.692 560.087 324.208 560.491 321.989 561.873 320.529 563.923 319.323 565.627 318.857 567.747 319.239 569.799L325.545 602.703C326.46 607.137 330.727 610.047 335.189 609.279 339.16 608.595 343.139 607.978 347.126 607.427 381.389 602.68 416.155 602.846 450.372 607.92 453.211 608.337 456.044 608.79 458.868 609.279 459.338 609.359 459.814 609.399 460.29 609.4 464.276 609.404 467.713 606.602 468.512 602.697L474.79 569.805C475.164 567.747 474.688 565.624 473.471 563.923Z" fill="#505050"/><path d="M466.752 563.321C420.593 555.363 373.413 555.363 327.254 563.321 325.64 563.577 324.196 564.466 323.241 565.792 322.536 566.771 322.257 567.993 322.467 569.18L328.773 602.067C329.335 604.753 331.93 606.508 334.633 606.028 375.925 598.905 418.132 598.905 459.425 606.028 462.117 606.485 464.691 604.738 465.261 602.067L471.533 569.186C471.749 567.998 471.474 566.773 470.771 565.792 469.814 564.465 468.367 563.575 466.752 563.321Z" fill="#FFFFFF"/><path d="M341.65 579.334 338.038 579.85 338.394 582.367 341.719 581.891 341.983 583.766 338.658 584.236 339.231 588.221 336.938 588.547 335.481 578.296 341.387 577.453ZM352.658 582.138C352.979 585.226 351.699 586.921 348.817 587.223 346.019 587.514 344.464 586.149 344.15 583.129L343.531 577.184 345.859 576.943 346.484 582.917C346.656 584.58 347.389 585.348 348.697 585.211 350.004 585.073 350.526 584.207 350.359 582.602L349.729 576.542 352.022 576.301ZM364.893 585.715 362.548 585.887 357.807 579.707C357.532 579.345 357.343 579.07 357.234 578.887 357.323 579.44 357.382 579.996 357.411 580.555L357.818 586.231 355.623 586.386 354.883 576.066 357.388 575.888 361.935 581.88C362.141 582.149 362.336 582.419 362.508 582.688 362.427 582.221 362.373 581.751 362.348 581.278L361.941 575.544 364.137 575.384ZM367.468 585.578 366.992 575.258 370.655 575.091C374.329 574.919 376.24 576.515 376.389 579.879 376.523 581.316 376.041 582.743 375.064 583.806 374.02 584.849 372.602 585.433 371.125 585.429ZM369.405 577.023 369.709 583.577 370.856 583.525C371.743 583.534 372.591 583.165 373.189 582.51 373.763 581.804 374.033 580.899 373.941 579.993 373.95 579.129 373.601 578.299 372.977 577.7 372.299 577.134 371.42 576.867 370.541 576.96ZM387.471 584.867 384.931 584.93 384.134 582.636 380.454 582.728 379.783 585.021 377.26 585.085 380.763 574.644 383.527 574.57ZM383.555 580.853 382.357 577.413C382.257 577.113 382.19 576.804 382.156 576.49L382.093 576.49C382.076 576.797 382.024 577.101 381.939 577.396L380.901 580.934ZM400.801 584.798 398.508 584.798 398.508 578.6C398.508 577.935 398.508 577.195 398.588 576.387L398.531 576.387C398.454 576.85 398.347 577.308 398.21 577.757L395.807 584.809 393.904 584.809 391.41 577.849C391.274 577.375 391.163 576.895 391.077 576.41L391.014 576.41C391.083 577.431 391.118 578.325 391.118 579.093L391.118 584.827 389.013 584.827 388.973 574.489 392.385 574.489 394.523 580.618C394.694 581.098 394.819 581.594 394.896 582.097L394.942 582.097C395.05 581.592 395.186 581.092 395.349 580.601L397.441 574.472 400.767 574.472ZM409.613 584.941 403.404 584.867 403.565 574.518 409.533 574.61 409.504 576.513 405.869 576.456 405.829 578.749 409.218 578.801 409.189 580.693 405.801 580.641 405.766 583.009 409.642 583.072ZM420.839 585.297 418.483 585.216 414.441 578.56C414.262 578.277 414.1 577.984 413.953 577.683L413.953 579.357 413.759 585.044 411.557 584.97 411.912 574.65 414.418 574.736 418.311 581.174C418.489 581.467 418.655 581.748 418.804 582.034L418.787 582.034C418.754 581.561 418.754 581.086 418.787 580.613L418.982 574.879 421.183 574.954ZM431.159 577.379 428.207 577.218 427.748 585.658 425.409 585.532 425.873 577.092 422.938 576.932 423.041 575.034 431.262 575.487ZM440.384 586.547 437.85 586.352 437.277 584.001 433.607 583.726 432.707 585.967 430.19 585.778 434.725 575.739 437.477 575.946ZM436.893 582.178 436.044 578.623C435.976 578.314 435.941 577.999 435.941 577.683L435.883 577.683C435.835 577.987 435.752 578.285 435.637 578.571L434.267 582ZM448.027 587.332 441.892 586.707 442.941 576.387 445.263 576.622 444.403 585.039 448.216 585.429ZM449.208 587.068 449.512 584.775C450.213 585.549 451.165 586.052 452.201 586.197 452.457 586.227 452.718 586.227 452.975 586.197 453.172 586.182 453.367 586.134 453.548 586.053 453.694 585.99 453.822 585.892 453.921 585.767 454.008 585.651 454.063 585.515 454.081 585.371 454.113 585.175 454.079 584.973 453.984 584.798 453.874 584.61 453.734 584.442 453.571 584.299 453.368 584.12 453.149 583.958 452.917 583.817 452.665 583.657 452.384 583.491 452.086 583.324 451.433 582.976 450.874 582.474 450.458 581.862 450.128 581.314 450.002 580.666 450.102 580.033 450.186 579.096 450.76 578.272 451.61 577.866 452.037 577.663 452.497 577.537 452.969 577.494 453.49 577.44 454.015 577.45 454.534 577.522 455.01 577.583 455.482 577.679 455.944 577.809 456.325 577.921 456.694 578.071 457.045 578.256L456.759 580.4C456.6 580.254 456.427 580.123 456.243 580.01 456.06 579.892 455.868 579.789 455.669 579.701 455.466 579.613 455.258 579.54 455.044 579.483 454.856 579.43 454.664 579.388 454.471 579.357 454.229 579.329 453.985 579.329 453.743 579.357 453.546 579.371 453.352 579.417 453.169 579.495 453.022 579.557 452.89 579.653 452.785 579.775 452.686 579.89 452.624 580.032 452.608 580.183 452.583 580.347 452.609 580.515 452.682 580.664 452.765 580.829 452.878 580.977 453.015 581.1 453.192 581.264 453.384 581.411 453.588 581.541 453.812 581.69 454.064 581.845 454.351 582.006 454.709 582.216 455.054 582.449 455.383 582.705 455.665 582.925 455.917 583.182 456.134 583.468 456.333 583.739 456.477 584.047 456.558 584.374 456.648 584.749 456.662 585.139 456.598 585.52 456.549 586.023 456.372 586.505 456.082 586.919 455.819 587.274 455.473 587.558 455.073 587.745 454.642 587.944 454.177 588.06 453.703 588.089 453.175 588.127 452.645 588.112 452.12 588.043 451.581 587.971 451.05 587.85 450.532 587.682 450.062 587.546 449.615 587.339 449.208 587.068Z" fill="#282828"/></g></svg>